<svg width="438" height="311" viewBox="0 0 438 311" fill="none" xmlns="http://www.w3.org/2000/svg">
<path d="M11.904 284.68L8.784 284.608C8.808 285.016 8.76 285.592 8.736 286.048C8.688 286.456 8.64 286.888 8.592 287.344C8.28 287.344 7.968 287.344 7.632 287.344C6.168 287.344 4.056 287.152 3.216 287.008L3.288 289.792C4.416 289.84 6.288 289.936 7.536 289.936C7.8 289.936 8.04 289.936 8.304 289.936C8.208 290.92 8.136 291.928 8.088 292.96C4.728 294.544 2.184 297.76 2.184 300.856C2.184 303.28 3.672 304.336 5.424 304.336C6.696 304.336 7.968 303.952 9.144 303.376C9.24 303.712 9.36 304.048 9.456 304.36L12.216 303.52C12.024 302.944 11.832 302.344 11.664 301.744C13.488 300.232 15.408 297.712 16.704 294.448C18.36 295.096 19.2 296.368 19.2 297.808C19.2 300.16 17.328 302.512 12.696 303.016L14.28 305.536C20.184 304.648 22.176 301.36 22.176 297.952C22.176 295.168 20.328 292.984 17.544 292.072C17.688 291.616 17.88 291.112 17.976 290.848L15.048 290.152C15.024 290.512 14.928 291.112 14.832 291.592C14.688 291.592 14.544 291.592 14.4 291.592C13.224 291.592 11.976 291.76 10.824 292.024C10.848 291.304 10.92 290.56 10.992 289.84C13.944 289.72 17.16 289.432 19.512 289L19.488 286.216C16.848 286.84 14.256 287.152 11.328 287.272C11.4 286.792 11.496 286.36 11.568 285.952C11.664 285.592 11.76 285.16 11.904 284.68ZM5.016 300.232C5.016 298.864 6.216 297.04 8.016 295.816C8.064 297.472 8.256 299.128 8.52 300.616C7.656 301.12 6.792 301.408 6.12 301.408C5.352 301.408 5.016 301 5.016 300.232ZM10.728 294.64V294.568C11.664 294.28 12.768 294.064 14.04 294.04C13.224 295.984 12.144 297.448 11.016 298.624C10.824 297.424 10.728 296.104 10.728 294.64ZM38.928 284.68L35.616 284.344C35.568 285.592 35.304 287.032 34.968 288.352C34.224 288.424 33.504 288.448 32.784 288.448C31.896 288.448 30.624 288.4 29.592 288.28L29.808 291.064C30.84 291.136 31.824 291.16 32.808 291.16C33.216 291.16 33.624 291.16 34.056 291.136C33 293.728 31.056 297.256 29.16 299.608L32.064 301.096C34.008 298.384 36.048 294.184 37.2 290.824C38.808 290.584 40.296 290.272 41.4 289.984L41.304 287.2C40.368 287.488 39.24 287.752 38.064 287.968C38.424 286.672 38.736 285.448 38.928 284.68ZM37.68 301.288C37.68 300.448 38.568 299.824 39.96 299.824C40.632 299.824 41.28 299.92 41.904 300.064C41.904 300.256 41.904 300.4 41.904 300.544C41.904 301.864 41.4 302.776 39.744 302.776C38.424 302.776 37.68 302.176 37.68 301.288ZM44.544 292.144H41.544C41.592 293.608 41.712 295.744 41.808 297.52C41.256 297.472 40.728 297.424 40.152 297.424C36.816 297.424 34.848 299.224 34.848 301.576C34.848 304.216 37.2 305.536 40.176 305.536C43.584 305.536 44.808 303.808 44.808 301.576C44.808 301.504 44.808 301.408 44.808 301.336C46.128 302.128 47.208 303.136 48.048 303.904L49.656 301.336C48.432 300.232 46.752 299.032 44.688 298.264C44.64 297.064 44.568 295.912 44.544 295.216C44.52 294.16 44.472 293.152 44.544 292.144ZM48.672 293.416L50.376 290.896C49.152 290.008 46.176 288.376 44.448 287.632L42.912 290.008C44.544 290.752 47.28 292.312 48.672 293.416ZM69.288 298.144L66.432 297.856C66.24 298.816 66 299.968 66 301.072C66 303.496 68.184 304.888 72.216 304.888C74.136 304.888 75.768 304.72 77.112 304.552L77.232 301.48C75.504 301.792 73.848 301.984 72.24 301.984C69.672 301.984 68.952 301.192 68.952 300.136C68.952 299.608 69.096 298.816 69.288 298.144ZM66.576 284.848L62.904 284.56C62.976 285.112 62.928 286.096 62.832 286.984C62.784 287.368 62.712 287.824 62.616 288.352C61.872 288.4 61.152 288.424 60.456 288.424C59.472 288.424 58.656 288.376 57.432 288.232L57.504 291.232C58.344 291.28 59.256 291.328 60.408 291.328C60.912 291.328 61.44 291.304 61.992 291.28C61.848 291.976 61.656 292.648 61.488 293.296C60.6 296.656 58.776 301.696 57.336 304.096L60.672 305.224C62.016 302.368 63.624 297.472 64.488 294.112C64.752 293.128 64.992 292.072 65.208 291.04C66.816 290.848 68.448 290.584 69.888 290.248V287.248C68.568 287.56 67.224 287.824 65.88 288.016C65.952 287.68 66.024 287.368 66.072 287.104C66.168 286.576 66.384 285.496 66.576 284.848ZM67.992 292.096V294.904C69.504 294.736 70.992 294.664 72.624 294.664C74.088 294.664 75.552 294.808 76.752 294.952L76.824 292.072C75.408 291.928 73.968 291.856 72.6 291.856C71.064 291.856 69.336 291.976 67.992 292.096ZM105.048 295.552C105.048 290.32 101.304 286.192 95.352 286.192C89.136 286.192 84.336 290.92 84.336 296.464C84.336 300.52 86.544 303.448 89.208 303.448C91.824 303.448 93.888 300.472 95.328 295.624C96.024 293.368 96.432 291.16 96.768 289.12C100.008 289.672 101.808 292.144 101.808 295.456C101.808 298.96 99.408 301.168 96.336 301.888C95.688 302.032 95.016 302.176 94.104 302.272L95.904 305.128C101.952 304.192 105.048 300.616 105.048 295.552ZM87.408 296.152C87.408 293.512 89.544 290.008 93.504 289.192C93.24 291.184 92.784 293.224 92.232 295C91.248 298.24 90.312 299.752 89.304 299.752C88.368 299.752 87.408 298.576 87.408 296.152ZM133.176 284.968H127.176V287.464H133.176V284.968ZM120.816 291.016H117.648V293.488H126.6V291.016H123.528V288.688H126.24V286.312H123.528V283.672H120.816V286.312H118.104V288.688H120.816V291.016ZM115.056 283.696C114.24 285.208 112.56 287.128 111.024 288.28C111.456 288.784 112.176 289.84 112.512 290.416C114.36 288.976 116.352 286.72 117.624 284.632L115.056 283.696ZM115.608 288.736C114.504 291.208 112.632 293.704 110.736 295.264C111.24 295.864 112.032 297.304 112.296 297.88C112.776 297.448 113.256 296.944 113.76 296.368V306.088H116.376V292.888C117.072 291.808 117.648 290.68 118.152 289.6L115.608 288.736ZM133.56 291.376H127.008V293.92H128.952V302.872C128.952 303.16 128.856 303.232 128.544 303.232C128.28 303.256 127.656 303.232 126.912 303.232L126.84 300.952C125.712 301.072 124.584 301.192 123.48 301.312V298.72H126.432V296.272H123.48V293.896H120.792V296.272H117.816V298.72H120.792V301.576C119.448 301.696 118.2 301.816 117.168 301.888L117.456 304.504C119.904 304.24 123.192 303.88 126.336 303.496C126.648 304.312 126.912 305.344 127.008 306.064C128.64 306.064 129.84 306.016 130.68 305.56C131.568 305.08 131.76 304.312 131.76 302.92V293.92H133.56V291.376ZM160.248 295.552C160.248 290.32 156.504 286.192 150.552 286.192C144.336 286.192 139.536 290.92 139.536 296.464C139.536 300.52 141.744 303.448 144.408 303.448C147.024 303.448 149.088 300.472 150.528 295.624C151.224 293.368 151.632 291.16 151.968 289.12C155.208 289.672 157.008 292.144 157.008 295.456C157.008 298.96 154.608 301.168 151.536 301.888C150.888 302.032 150.216 302.176 149.304 302.272L151.104 305.128C157.152 304.192 160.248 300.616 160.248 295.552ZM142.608 296.152C142.608 293.512 144.744 290.008 148.704 289.192C148.44 291.184 147.984 293.224 147.432 295C146.448 298.24 145.512 299.752 144.504 299.752C143.568 299.752 142.608 298.576 142.608 296.152ZM184.296 284.344L182.4 285.112C183 285.976 183.672 287.248 184.152 288.208L183.984 288.112C183.456 288.28 182.64 288.4 181.896 288.4H177.096C177.12 288.352 177.144 288.328 177.168 288.28C177.432 287.752 178.056 286.672 178.632 285.832L175.104 284.68C174.888 285.496 174.384 286.6 174.024 287.176C172.848 289.24 170.736 292.36 166.536 294.904L169.224 296.92C171.6 295.312 173.688 293.2 175.296 291.112H182.04C181.656 292.888 180.264 295.792 178.632 297.64C176.52 300.04 173.856 302.128 168.96 303.592L171.792 306.136C176.304 304.336 179.184 302.152 181.464 299.344C183.648 296.68 185.016 293.488 185.664 291.352C185.856 290.752 186.192 290.08 186.456 289.624L184.416 288.376L186.192 287.632C185.76 286.744 184.896 285.208 184.296 284.344ZM187.128 283.264L185.232 284.032C185.904 284.944 186.672 286.336 187.176 287.344L189.072 286.528C188.64 285.688 187.752 284.152 187.128 283.264ZM205.272 303.472L207.288 305.128C207.504 304.936 207.792 304.696 208.32 304.408C211.008 303.04 214.464 300.448 216.456 297.856L214.608 295.216C213 297.544 210.624 299.44 208.68 300.28V287.728C208.68 286.648 208.824 285.712 208.848 285.64H205.272C205.296 285.712 205.464 286.624 205.464 287.704V301.696C205.464 302.344 205.368 303.016 205.272 303.472ZM194.16 303.112L197.088 305.056C199.128 303.232 200.64 300.88 201.36 298.168C202.008 295.744 202.08 290.68 202.08 287.848C202.08 286.84 202.224 285.784 202.248 285.664H198.72C198.864 286.264 198.936 286.912 198.936 287.872C198.936 290.776 198.912 295.312 198.24 297.376C197.568 299.416 196.272 301.624 194.16 303.112ZM241.032 286.36L237.456 285.112C237.36 285.736 237.096 286.696 236.88 287.32C236.256 289.216 235.44 291.112 234.216 293.032C232.272 291.592 229.752 289.864 227.832 288.688L225.792 291.136C228.24 292.624 230.544 294.328 232.272 295.696C229.896 298.552 227.064 300.88 223.152 302.776L225.84 305.2C229.896 302.992 232.656 300.328 234.768 297.784C236.688 299.44 238.416 301.12 240.096 303.088L242.568 300.352C240.936 298.624 238.92 296.776 236.808 295.048C238.224 292.84 239.304 290.416 240.024 288.52C240.264 287.968 240.72 286.912 241.032 286.36ZM266.352 293.392V292.6H268.128C269.4 292.6 270.24 292.624 270.768 292.672V289.48C270.12 289.6 269.4 289.648 268.128 289.648H266.352V287.128C266.352 286.168 266.448 285.376 266.52 284.896H263.088C263.16 285.376 263.232 286.168 263.232 287.128V289.648H257.544V287.272C257.544 286.336 257.616 285.568 257.688 285.112H254.28C254.352 285.832 254.424 286.576 254.424 287.272V289.648H252.384C251.184 289.648 250.2 289.504 249.792 289.432V292.696C250.32 292.648 251.184 292.6 252.384 292.6H254.424V295.864C254.424 296.944 254.352 297.904 254.28 298.384H257.64C257.616 297.904 257.544 296.92 257.544 295.864V292.6H263.232V293.512C263.232 299.416 261.192 301.48 256.56 303.088L259.128 305.512C264.912 302.968 266.352 299.344 266.352 293.392ZM277.488 294.664L279 297.688C281.952 296.824 285 295.528 287.472 294.232V301.912C287.472 302.968 287.4 304.48 287.304 305.056H291.096C290.928 304.456 290.88 302.968 290.88 301.912V292.216C293.208 290.68 295.512 288.808 297.336 287.008L294.744 284.536C293.184 286.432 290.448 288.832 287.976 290.368C285.312 292 281.784 293.56 277.488 294.664ZM311.136 301.696C311.136 302.656 311.04 304.096 310.896 305.056H314.64C314.544 304.072 314.424 302.392 314.424 301.696V294.904C317.016 295.792 320.616 297.184 323.088 298.48L324.456 295.168C322.248 294.088 317.64 292.384 314.424 291.448V287.896C314.424 286.912 314.544 285.856 314.64 285.016H310.896C311.064 285.856 311.136 287.056 311.136 287.896V301.696ZM335.616 301.096V296.392H339.432V301.096H335.616ZM339.432 293.92H335.616V290.032H339.432V293.92ZM347.064 287.368C347.424 286.36 347.736 285.352 348 284.32L345.264 283.696C344.568 286.504 343.416 289.408 342.024 291.424V287.536H338.304C338.712 286.504 339.144 285.304 339.552 284.104L336.432 283.672C336.336 284.8 336.048 286.336 335.736 287.536H333.024V305.368H335.616V303.616H342.024V292.408C342.672 292.84 343.488 293.392 343.872 293.752C344.616 292.72 345.36 291.4 345.984 289.96H351.12C350.856 298.432 350.544 302.032 349.848 302.8C349.536 303.112 349.272 303.208 348.792 303.208C348.168 303.208 346.752 303.208 345.216 303.064C345.72 303.856 346.104 305.056 346.152 305.848C347.568 305.896 349.008 305.92 349.92 305.8C350.88 305.632 351.552 305.368 352.224 304.48C353.208 303.208 353.472 299.392 353.784 288.664C353.808 288.328 353.808 287.368 353.808 287.368H347.064ZM349.824 298.312C349.08 296.92 347.496 294.64 346.296 292.984L344.064 294.256C345.24 296.008 346.728 298.36 347.4 299.8L349.824 298.312ZM370.128 284.68L366.816 284.344C366.768 285.592 366.504 287.032 366.168 288.352C365.424 288.424 364.704 288.448 363.984 288.448C363.096 288.448 361.824 288.4 360.792 288.28L361.008 291.064C362.04 291.136 363.024 291.16 364.008 291.16C364.416 291.16 364.824 291.16 365.256 291.136C364.2 293.728 362.256 297.256 360.36 299.608L363.264 301.096C365.208 298.384 367.248 294.184 368.4 290.824C370.008 290.584 371.496 290.272 372.6 289.984L372.504 287.2C371.568 287.488 370.44 287.752 369.264 287.968C369.624 286.672 369.936 285.448 370.128 284.68ZM368.88 301.288C368.88 300.448 369.768 299.824 371.16 299.824C371.832 299.824 372.48 299.92 373.104 300.064C373.104 300.256 373.104 300.4 373.104 300.544C373.104 301.864 372.6 302.776 370.944 302.776C369.624 302.776 368.88 302.176 368.88 301.288ZM375.744 292.144H372.744C372.792 293.608 372.912 295.744 373.008 297.52C372.456 297.472 371.928 297.424 371.352 297.424C368.016 297.424 366.048 299.224 366.048 301.576C366.048 304.216 368.4 305.536 371.376 305.536C374.784 305.536 376.008 303.808 376.008 301.576C376.008 301.504 376.008 301.408 376.008 301.336C377.328 302.128 378.408 303.136 379.248 303.904L380.856 301.336C379.632 300.232 377.952 299.032 375.888 298.264C375.84 297.064 375.768 295.912 375.744 295.216C375.72 294.16 375.672 293.152 375.744 292.144ZM379.872 293.416L381.576 290.896C380.352 290.008 377.376 288.376 375.648 287.632L374.112 290.008C375.744 290.752 378.48 292.312 379.872 293.416ZM402.552 290.248C401.52 292.96 400.152 295.216 398.424 297.088C396.576 295.144 395.16 292.84 394.128 290.248H402.552ZM409.368 290.248V287.464H399.84V283.672H396.936V287.464H387.528V290.248H390.96C392.256 293.752 393.912 296.752 396.072 299.224C393.648 301.072 390.648 302.44 387.096 303.376C387.672 304.072 388.56 305.416 388.896 306.16C392.544 305.008 395.64 303.448 398.256 301.36C400.776 303.496 403.896 305.104 407.76 306.088C408.192 305.272 409.104 303.928 409.8 303.232C406.152 302.416 403.128 301 400.656 299.104C402.864 296.704 404.616 293.8 405.912 290.248H409.368ZM429.168 287.488C428.952 288.064 428.664 288.712 428.424 289.264H423.648C423.504 288.736 423.216 288.064 422.856 287.488H429.168ZM436.776 289.264H431.424C431.712 288.76 432.024 288.16 432.36 287.512L432.216 287.488H435.384V285.256H427.44V283.672H424.44V285.256H416.712V287.488H420.432L419.88 287.584C420.144 288.088 420.408 288.712 420.6 289.264H415.224V291.496H436.776V289.264ZM420.456 297.28H431.424V298.384H420.456V297.28ZM420.456 294.352H431.424V295.504H420.456V294.352ZM436.896 301.36H427.44V300.304H434.328V292.48H417.696V300.304H424.44V301.36H415.128V303.616H424.44V306.064H427.44V303.616H436.896V301.36Z" fill="white"/>
<path d="M54.7186 0.500198L43.2024 1.42865C39.7278 1.722 37.0622 3.7834 37.3323 6.02115L43.6418 58.5782L63.3084 56.9926L63.4407 56.9807L61.2506 4.09404C61.1585 1.84071 58.218 0.218066 54.7186 0.500198Z" fill="white"/>
<path d="M64.1605 65.0732L64.1549 64.9796L44.789 66.5163L44.2938 66.5515L44.2942 66.5562L44.2176 66.5624L61.5875 237.248C61.7729 239.284 62.6526 241.07 63.8797 242.311C65.1572 243.601 66.7995 244.318 68.5811 244.174C72.0726 243.865 74.6418 240.376 74.3744 236.219L64.4686 70.2127L64.162 65.0737L64.1605 65.0738L64.1605 65.0732Z" fill="white"/>
<path d="M148.638 24.593L138.227 19.6792C135.062 18.1803 131.727 18.638 130.844 20.7119L110.075 69.4014L128.037 77.9051L152.533 30.9801C153.551 28.9862 151.806 26.0929 148.638 24.593Z" fill="white"/>
<path d="M107.092 76.8459L106.664 76.6382L106.662 76.6424L106.592 76.6088L36.4227 233.201C35.6029 235.041 35.4369 237.043 35.8775 238.729C36.335 240.482 37.4287 241.904 39.0374 242.668C42.1758 244.152 46.1658 242.396 48.0187 238.692L122.764 88.9786L124.629 85.2499L124.625 85.2482L124.668 85.1673L107.092 76.8464L107.092 76.8459Z" fill="white"/>
<path d="M113.699 187.466C113.699 171.972 119.379 158.665 130.737 147.544C142.049 136.423 155.641 130.862 171.515 130.862C187.198 130.862 200.648 136.47 211.864 147.687C223.128 158.903 228.76 172.376 228.76 188.107C228.76 203.934 223.104 217.36 211.793 228.386C200.434 239.459 186.723 244.996 170.659 244.996C156.449 244.996 143.688 240.077 132.377 230.239C119.925 219.356 113.699 205.098 113.699 187.466ZM130.452 187.68C130.452 199.846 134.539 209.851 142.714 217.692C150.841 225.534 160.227 229.455 170.873 229.455C182.422 229.455 192.165 225.463 200.102 217.479C208.038 209.399 212.007 199.561 212.007 187.965C212.007 176.226 208.086 166.388 200.244 158.451C192.45 150.467 182.802 146.475 171.301 146.475C159.847 146.475 150.175 150.467 142.286 158.451C134.397 166.34 130.452 176.083 130.452 187.68ZM283.324 148.542V243H266.714V148.542H241.406V132.93H308.561V148.542H283.324ZM391.427 148.542H347.299V174.99H390.144V190.603H347.299V227.388H391.427V243H330.689V132.93H391.427V148.542Z" fill="white"/>
<path d="M194.911 197.736C193.67 201.336 186.422 211.893 174.563 214.265" stroke="white" stroke-width="10" stroke-linecap="round" stroke-linejoin="round"/>
</svg>
